<svg id="Livello_2" data-name="Livello 2" xmlns="http://www.w3.org/2000/svg" viewBox="0 0 1402.72 1630.35"><defs><style>.cls-1{fill:#d28d0c;}.cls-2{fill:#eda424;}.cls-3{fill:#224d3c;}.cls-4{fill:#24513f;}.cls-5{fill:#999;}.cls-6{fill:#fff;}</style></defs><path class="cls-1" d="M1851.36,1184.54a701.38,701.38,0,1,1-205.43-495.93A701.36,701.36,0,0,1,1851.36,1184.54Z" transform="translate(-448.64 -255.55)"/><path class="cls-2" d="M1834.63,1184.54a684.62,684.62,0,1,1-200.52-484.11A684.63,684.63,0,0,1,1834.63,1184.54Z" transform="translate(-448.64 -255.55)"/><path class="cls-3" d="M1817.68,1184.54a667.68,667.68,0,1,1-195.56-472.12A667.69,667.69,0,0,1,1817.68,1184.54Z" transform="translate(-448.64 -255.55)"/><path class="cls-1" d="M1610.34,1184.54A460.34,460.34,0,0,1,1150,1644.88c-254.24,0-460.34-206.1-460.34-460.34S895.76,724.2,1150,724.2,1610.34,930.31,1610.34,1184.54Z" transform="translate(-448.64 -255.55)"/><path class="cls-2" d="M1599.36,1184.54c0,248.18-201.18,449.37-449.36,449.37a449.36,449.36,0,1,1,449.36-449.37Z" transform="translate(-448.64 -255.55)"/><path class="cls-3" d="M1588.23,1184.54c0,242-196.2,438.24-438.23,438.24s-438.24-196.21-438.24-438.24A438.25,438.25,0,0,1,1150,746.31C1392,746.31,1588.23,942.51,1588.23,1184.54Z" transform="translate(-448.64 -255.55)"/><rect class="cls-1" x="1107.88" y="272.97" width="84.59" height="84.59" transform="translate(-366.7 589.98) rotate(-41.73)"/><rect class="cls-2" x="1114.71" y="279.8" width="70.93" height="70.93" transform="translate(-366.68 590.01) rotate(-41.73)"/><rect class="cls-3" x="1122.91" y="287.99" width="54.54" height="54.54" transform="translate(-366.67 590.03) rotate(-41.73)"/><rect class="cls-1" x="1236.44" y="325.49" width="84.59" height="84.59" transform="translate(-369.04 688.87) rotate(-41.73)"/><rect class="cls-2" x="1243.27" y="332.32" width="70.93" height="70.93" transform="translate(-369.02 688.93) rotate(-41.73)"/><rect class="cls-3" x="1251.47" y="340.51" width="54.54" height="54.54" transform="translate(-369.01 688.93) rotate(-41.73)"/><rect class="cls-1" x="978.97" y="325.49" width="84.59" height="84.59" transform="translate(-434.33 517.57) rotate(-41.73)"/><rect class="cls-2" x="985.79" y="332.32" width="70.94" height="70.93" transform="translate(-434.34 517.54) rotate(-41.73)"/><rect class="cls-3" x="993.99" y="340.51" width="54.55" height="54.54" transform="translate(-434.38 517.45) rotate(-41.73)"/><polygon class="cls-1" points="701.36 1346.87 394.12 1189.38 394.12 651.38 701.36 548.81 1008.59 651.59 1008.59 1189.38 701.36 1346.87"/><polygon class="cls-2" points="701.36 1326.94 409.47 1177.32 409.47 666.19 701.36 568.74 993.24 666.39 993.24 1177.32 701.36 1326.94"/><polygon class="cls-3" points="701.36 1295.55 433.64 1158.32 433.64 689.51 701.36 600.13 969.07 689.69 969.07 1158.32 701.36 1295.55"/><polygon class="cls-4" points="701.36 600.13 433.64 689.51 433.64 1158.32 701.36 1295.55 702.06 1295.19 702.06 600.37 701.36 600.13"/><path class="cls-5" d="M1010.43,1393.31c-16.76-146.17,216.74-265.87,237.69-251.39,7.71,47.73-2.44,88.79-36.2,113.09C1146.31,1298.8,1082.84,1270.81,1010.43,1393.31Z" transform="translate(-448.64 -255.55)"/><path class="cls-5" d="M1056.11,1473.48c-58.67-24-17.25-98.94,25.88-104.25C1115.49,1373.91,1041.79,1405.94,1056.11,1473.48Z" transform="translate(-448.64 -255.55)"/><path class="cls-5" d="M1008.36,1259.38c-21-183.2,271.62-333.19,297.87-315.06,9.67,59.82-3,111.28-45.35,141.73C1178.64,1140.93,1099.1,1105.84,1008.36,1259.38Z" transform="translate(-448.64 -255.55)"/><path class="cls-6" d="M1010.43,1370.28c-16.76-146.17,216.74-265.87,237.69-251.39,7.71,47.73-2.44,88.79-36.2,113.09C1146.31,1275.77,1082.84,1247.77,1010.43,1370.28Z" transform="translate(-448.64 -255.55)"/><path class="cls-6" d="M1047.76,1459c-55.1-31.31-4.44-100.34,39-100.08C1119.39,1367.87,1042.2,1390.2,1047.76,1459Z" transform="translate(-448.64 -255.55)"/><path class="cls-6" d="M1008.36,1236.34c-21-183.19,271.62-333.19,297.87-315,9.67,59.81-3,111.28-45.35,141.73C1178.64,1117.9,1099.1,1082.81,1008.36,1236.34Z" transform="translate(-448.64 -255.55)"/><path class="cls-6" d="M630.58,1201.47l.62,26.4-93.33,2.19-1.73-73.2,20.4-.48,1.1,46.8Zm-52.36,3.1-1-43.07,20.4-.48,1,43.07Z" transform="translate(-448.64 -255.55)"/><polygon class="cls-6" points="183.82 870.01 91.86 853.89 96.42 827.88 167.76 840.38 175.44 796.5 196.07 800.12 183.82 870.01"/><path class="cls-6" d="M643.11,997.72,661,952.29l19,7.48-27.46,69.74-86.87-34.2,26.83-68.13,19,7.47-17.25,43.81ZM608.17,986l15.88-40.33,18.37,7.24-15.89,40.32Z" transform="translate(-448.64 -255.55)"/><polygon class="cls-6" points="244.92 675.49 168.93 621.23 181.57 603.54 255.71 608.95 249.04 618.29 219.23 550.79 231.87 533.1 308 587.13 293.9 606.89 247.83 574.32 250.23 570.96 272.3 621.29 265.48 630.85 210.24 626.96 213.18 622.84 259.1 655.62 244.92 675.49"/><rect class="cls-6" x="747.8" y="728.86" width="26.41" height="93.36" transform="translate(-773.09 471.24) rotate(-42.97)"/><polygon class="cls-6" points="380.23 521.11 330.06 442.37 348.39 430.69 425.21 455.43 416.55 460.95 383.15 408.54 404.96 394.63 455.14 473.37 436.81 485.05 359.99 460.3 368.65 454.79 402.05 507.2 380.23 521.11"/><path class="cls-6" d="M991,680.89l-11.31-33.35,22.1-7.5,12.43,36.63Zm-10.11,19.62a59.27,59.27,0,0,1-20.56,3.31,49,49,0,0,1-18.79-4.33,47.41,47.41,0,0,1-15-11.1,48.61,48.61,0,0,1-10-17.32,47.73,47.73,0,0,1-2.59-19.68,46,46,0,0,1,5.26-18.12,47.36,47.36,0,0,1,12.31-14.75,59.11,59.11,0,0,1,18.68-10.13A60.07,60.07,0,0,1,974,605a44.1,44.1,0,0,1,20.37,6.48l-11,19.79a32.16,32.16,0,0,0-12.34-4,27.48,27.48,0,0,0-12.48,1.41,30.57,30.57,0,0,0-9.76,5.29,22.67,22.67,0,0,0-6.2,7.87,25.27,25.27,0,0,0-2.48,9.72,32.55,32.55,0,0,0,7,20.58,26.48,26.48,0,0,0,7.92,6.33,25.17,25.17,0,0,0,9.59,2.52,30.08,30.08,0,0,0,10.83-1.7,36.17,36.17,0,0,0,10.26-5.45,39.28,39.28,0,0,0,8.59-10l20,12.8A60.88,60.88,0,0,1,999.47,691,73.74,73.74,0,0,1,980.87,700.51Z" transform="translate(-448.64 -255.55)"/><polygon class="cls-6" points="621.69 422.27 613.55 350.31 585.06 353.54 582.7 332.73 665.81 323.33 668.15 344.14 639.79 347.34 647.93 419.31 621.69 422.27"/><path class="cls-6" d="M1199.48,656.42a25.61,25.61,0,0,0,10-.76,22.51,22.51,0,0,0,8.54-4.41,24.87,24.87,0,0,0,6.26-7.89,28.72,28.72,0,0,0,3.2-10.65,28.06,28.06,0,0,0-.77-11.08,23.46,23.46,0,0,0-4.36-9,22,22,0,0,0-7.34-6.32,25.68,25.68,0,0,0-9.6-3,26.61,26.61,0,0,0-10.15.75,23,23,0,0,0-8.57,4.54,26.19,26.19,0,0,0-6.24,7.75,30,30,0,0,0-3.07,10.66,30.84,30.84,0,0,0,.64,11.08,27.9,27.9,0,0,0,4.35,9.08,24.25,24.25,0,0,0,7.36,6.19A26.57,26.57,0,0,0,1199.48,656.42ZM1197,678.16a57.87,57.87,0,0,1-20.14-5.88,50.89,50.89,0,0,1-15.31-11.92,48.26,48.26,0,0,1-9-16.58,50.24,50.24,0,0,1,4.31-38.43,46.84,46.84,0,0,1,12.44-14.05,49.41,49.41,0,0,1,17.59-8.36,57.76,57.76,0,0,1,20.94-1.28,57,57,0,0,1,20.14,5.89,48,48,0,0,1,15.16,12,46.57,46.57,0,0,1,9,16.44,46.07,46.07,0,0,1,1.82,19.67,47.18,47.18,0,0,1-6.14,18.91,46.52,46.52,0,0,1-12.45,14,48.91,48.91,0,0,1-17.43,8.25A57.13,57.13,0,0,1,1197,678.16Z" transform="translate(-448.64 -255.55)"/><polygon class="cls-6" points="830.05 434.71 863.11 347.4 883.44 355.1 909.58 431.45 899.98 427.81 921.98 369.68 946.19 378.85 913.12 466.16 892.79 458.46 866.65 382.11 876.26 385.74 854.25 443.87 830.05 434.71"/><path class="cls-6" d="M1459.92,786l-20.34-16.84,59.52-71.92,56.41,46.68-13,15.72-36.06-29.85Zm32-41.57,33.19,27.47-13,15.72-33.18-27.47Z" transform="translate(-448.64 -255.55)"/><path class="cls-6" d="M1560.91,861.1a25.61,25.61,0,0,0,7.49,6.7,22.63,22.63,0,0,0,9.1,3.11,24.94,24.94,0,0,0,10-1,31,31,0,0,0,17.37-13.3,23.55,23.55,0,0,0,3.42-9.34,21.76,21.76,0,0,0-.52-9.68,25.83,25.83,0,0,0-4.52-9,27,27,0,0,0-7.57-6.81,23.52,23.52,0,0,0-9.21-3,26.33,26.33,0,0,0-9.91.88,30,30,0,0,0-9.82,5.16,30.84,30.84,0,0,0-7.55,8.14,27.9,27.9,0,0,0-3.53,9.43,24.23,24.23,0,0,0,.63,9.59A26.62,26.62,0,0,0,1560.91,861.1Zm-17.36,13.3a57.72,57.72,0,0,1-9.72-18.6,50.72,50.72,0,0,1-2-19.3,48.33,48.33,0,0,1,5.72-18A50.27,50.27,0,0,1,1568.25,795a46.64,46.64,0,0,1,18.74-.75,49.48,49.48,0,0,1,18.21,6.88,57.9,57.9,0,0,1,15.43,14.23,57.14,57.14,0,0,1,9.71,18.6,48.13,48.13,0,0,1,1.83,19.26,46.64,46.64,0,0,1-5.61,17.91,46.11,46.11,0,0,1-12.92,14.93,47.31,47.31,0,0,1-36.64,9.42,48.94,48.94,0,0,1-18-6.86A57.17,57.17,0,0,1,1543.55,874.4Z" transform="translate(-448.64 -255.55)"/><path class="cls-6" d="M1628.33,977.16a25.75,25.75,0,0,0,5.56,8.36,22.72,22.72,0,0,0,8,5.3,24.79,24.79,0,0,0,9.94,1.59,28.92,28.92,0,0,0,10.85-2.41,28.26,28.26,0,0,0,9.3-6.1,23.67,23.67,0,0,0,5.67-8.18,21.93,21.93,0,0,0,1.92-9.5,25.73,25.73,0,0,0-2.12-9.82,26.7,26.7,0,0,0-5.62-8.49,23.25,23.25,0,0,0-8.15-5.24,25.87,25.87,0,0,0-9.81-1.65,30,30,0,0,0-10.8,2.54,30.73,30.73,0,0,0-9.36,6,27.72,27.72,0,0,0-5.78,8.24,24.29,24.29,0,0,0-1.8,9.45A26.88,26.88,0,0,0,1628.33,977.16Zm-20.14,8.51a57.78,57.78,0,0,1-4.74-20.44,50.63,50.63,0,0,1,2.91-19.18A47,47,0,0,1,1632.71,919a47.34,47.34,0,0,1,19.33-4,46.36,46.36,0,0,1,18.33,4,49.25,49.25,0,0,1,15.89,11.24,61.16,61.16,0,0,1,16.09,38.08,47.82,47.82,0,0,1-3.07,19.11,46.57,46.57,0,0,1-9.93,15.92,46.05,46.05,0,0,1-16.25,11.21,47,47,0,0,1-19.5,3.89,46.45,46.45,0,0,1-18.33-4,49.06,49.06,0,0,1-15.72-11.16A57.06,57.06,0,0,1,1608.19,985.67Z" transform="translate(-448.64 -255.55)"/><polygon class="cls-6" points="1191.07 825.71 1262.37 813 1257.34 784.77 1277.96 781.1 1292.62 863.43 1272 867.11 1267 839 1195.7 851.71 1191.07 825.71"/><polygon class="cls-6" points="1201.35 927.94 1240.82 928.97 1224.79 934.69 1295.61 894.77 1294.88 922.64 1243.56 951.46 1243.99 935.32 1293.73 966.9 1293.06 992.5 1224.41 949.09 1240.13 955.37 1200.66 954.34 1201.35 927.94"/><path class="cls-6" d="M766.11,1627.6l18.19-9,33.42,29.07-8.22,17.67Zm-28.82-1.95L830.82,1588l19,16.57-33,90.25-20.13-17.52,30.9-75.61,7.62,6.64L757,1642.82Z" transform="translate(-448.64 -255.55)"/><path class="cls-6" d="M888.59,1737.67a59.07,59.07,0,0,1-16.19-12.27,45.53,45.53,0,0,1-9.22-15.75,41.68,41.68,0,0,1-1.8-17.39,43.57,43.57,0,0,1,6.2-17.74,45.29,45.29,0,0,1,12.88-14.08,48.34,48.34,0,0,1,16.85-7.69,50.65,50.65,0,0,1,19.05-.66,59.94,59.94,0,0,1,19.65,6.52,55.33,55.33,0,0,1,17.88,14.3,40.31,40.31,0,0,1,8.48,18.5l-22.06,4.65a29.51,29.51,0,0,0-4.74-11.23,24.91,24.91,0,0,0-9.08-7.8,30.47,30.47,0,0,0-10.09-3.33,24.21,24.21,0,0,0-9.87.65,26.58,26.58,0,0,0-8.75,4.39,29,29,0,0,0-7,8,27.47,27.47,0,0,0-3.71,9.76,24.2,24.2,0,0,0,.48,9.41,21.68,21.68,0,0,0,4.59,8.14,28.58,28.58,0,0,0,8.27,6.37,26.85,26.85,0,0,0,11.82,3.24,34.5,34.5,0,0,0,12.68-2l7.22,20.11a49,49,0,0,1-21.26,2.79A58.68,58.68,0,0,1,888.59,1737.67Z" transform="translate(-448.64 -255.55)"/><path class="cls-6" d="M979.66,1756l11.79-15.78,43.85,11.67,1.28,19.25Zm-26.57,10.54,64.83-73.43,25,6.65,14.53,94.55-26.41-7-9.31-80.6,10,2.66L979,1773.46Z" transform="translate(-448.64 -255.55)"/><path class="cls-6" d="M1123.89,1780.09l16.64.47a32.38,32.38,0,0,0,13.92-2.35,21.78,21.78,0,0,0,9.56-8,24.6,24.6,0,0,0,3.7-12.87,24.22,24.22,0,0,0-3-13.06,21,21,0,0,0-9.09-8.37,31.3,31.3,0,0,0-13.76-3.25l-16.64-.47Zm-26.92,19,2.49-87.27,44.07,1.24q15.45.43,27,6.12a42.84,42.84,0,0,1,17.81,15.6q6.38,9.91,6,23.38t-7.32,23a42.74,42.74,0,0,1-18.67,14.57q-11.86,5-27.31,4.6Z" transform="translate(-448.64 -255.55)"/><path class="cls-6" d="M1260.17,1772.76l47.7-9.23,4.19,18.69-73.25,14.17-19.15-85.5,71.55-13.85,4.18,18.69-46,8.9Zm-9.38-33.36,42.36-8.2,4,18.08-42.36,8.2Z" transform="translate(-448.64 -255.55)"/><polygon class="cls-6" points="911.54 1511.33 870.32 1432.9 889.79 1423.97 952.46 1461.41 942.19 1466.13 947.85 1397.34 967.31 1388.41 1008.77 1466.74 987.03 1476.71 961.89 1429.42 965.59 1427.72 961.23 1478.95 950.72 1483.77 903.95 1456 908.5 1453.91 933.4 1501.31 911.54 1511.33"/><polygon class="cls-6" points="1072.49 1421.77 1046.8 1393.69 1061.78 1401.26 984.77 1377 1005.88 1360.08 1061.6 1377.72 1049.38 1387.52 1039.4 1333.18 1058.8 1317.64 1072.68 1392.52 1066.8 1377.66 1092.49 1405.74 1072.49 1421.77"/><path class="cls-1" d="M499.25,1333.84q6.47,27.69,15.27,54.78H741l-20.15-54.78Z" transform="translate(-448.64 -255.55)"/><path class="cls-1" d="M525.12,1418.89q10.1,27.27,22.55,53.59H798.14l-32.46-53.59Z" transform="translate(-448.64 -255.55)"/><path class="cls-1" d="M1801.93,1333.84q-6.47,27.69-15.27,54.78H1560.21l20.15-54.78Z" transform="translate(-448.64 -255.55)"/><path class="cls-1" d="M1776.07,1418.89q-10.11,27.27-22.56,53.59H1503.05l32.45-53.59Z" transform="translate(-448.64 -255.55)"/></svg>