<svg id="Livello_1" data-name="Livello 1" xmlns="http://www.w3.org/2000/svg" viewBox="0 0 1823.37 1106.13"><defs><style>.cls-1{fill:#d28d0c;}.cls-2{fill:#eda424;}.cls-3{fill:#224d3c;}.cls-4{fill:#24513f;}.cls-5{fill:#999;}.cls-6{fill:#fff;}</style></defs><rect class="cls-1" x="554.12" y="537.91" width="71.04" height="71.04" transform="translate(-468.13 14.71) rotate(-41.73)"/><polygon class="cls-1" points="352.08 1106.13 0 925.66 0 285.35 352.08 167.81 704.16 285.59 704.16 925.66 352.08 1106.13"/><polygon class="cls-2" points="352.08 1083.29 17.59 911.83 17.59 302.32 352.08 190.65 686.57 302.55 686.57 911.83 352.08 1083.29"/><polygon class="cls-3" points="352.08 1047.32 45.28 890.06 45.28 329.04 352.08 226.62 658.88 329.25 658.88 890.06 352.08 1047.32"/><polygon class="cls-4" points="352.08 226.62 45.28 329.05 45.28 890.06 352.08 1047.32 352.88 1046.91 352.88 226.89 352.08 226.62"/><path class="cls-5" d="M459.12,1347.51c-16.75-146.14,216.68-265.81,237.63-251.34,7.71,47.72-2.44,88.78-36.19,113.07C595,1253,531.51,1225,459.12,1347.51Z" transform="translate(-236.04 -523.28)"/><path class="cls-5" d="M504.78,1427.66c-58.64-24-17.25-98.92,25.88-104.23C564.15,1328.11,490.47,1360.13,504.78,1427.66Z" transform="translate(-236.04 -523.28)"/><path class="cls-5" d="M457,1213.6c-21-183.15,271.56-333.12,297.81-315,9.66,59.8-3.05,111.25-45.34,141.7C627.29,1095.19,547.77,1060.1,457,1213.6Z" transform="translate(-236.04 -523.28)"/><path class="cls-6" d="M459.12,1324.48c-16.75-146.14,216.68-265.8,237.63-251.34,7.71,47.72-2.44,88.78-36.19,113.07C595,1230,531.51,1202,459.12,1324.48Z" transform="translate(-236.04 -523.28)"/><path class="cls-6" d="M496.44,1413.2c-55.1-31.3-4.45-100.32,39-100.06C568.06,1322.07,490.88,1344.39,496.44,1413.2Z" transform="translate(-236.04 -523.28)"/><path class="cls-6" d="M457,1190.57c-21-183.15,271.56-333.11,297.81-315,9.66,59.8-3.05,111.26-45.34,141.7C627.29,1072.16,547.77,1037.08,457,1190.57Z" transform="translate(-236.04 -523.28)"/><rect class="cls-2" x="559.86" y="543.65" width="59.57" height="59.57" transform="translate(-468.13 14.71) rotate(-41.73)"/><rect class="cls-3" x="566.74" y="550.53" width="45.81" height="45.81" transform="translate(-468.13 14.68) rotate(-41.73)"/><rect class="cls-1" x="662.09" y="582.02" width="71.04" height="71.04" transform="translate(-470.1 97.77) rotate(-41.73)"/><rect class="cls-2" x="667.83" y="587.76" width="59.57" height="59.57" transform="translate(-470.1 97.77) rotate(-41.73)"/><rect class="cls-3" x="674.71" y="594.64" width="45.81" height="45.81" transform="translate(-470.1 97.76) rotate(-41.73)"/><rect class="cls-1" x="445.85" y="582.02" width="71.04" height="71.04" transform="translate(-524.96 -46.17) rotate(-41.73)"/><rect class="cls-2" x="451.58" y="587.76" width="59.57" height="59.57" transform="translate(-524.95 -46.22) rotate(-41.73)"/><rect class="cls-3" x="458.47" y="594.64" width="45.81" height="45.81" transform="translate(-524.95 -46.24) rotate(-41.73)"/><path class="cls-6" d="M1032.25,1135.9h-26.7v-94.39h74v20.63h-47.34Zm-1.88-53h43.56v20.63h-43.56Z" transform="translate(-236.04 -523.28)"/><polygon class="cls-6" points="869.35 612.62 869.35 518.23 896.05 518.23 896.05 591.45 941.09 591.45 941.09 612.62 869.35 612.62"/><path class="cls-6" d="M1227.34,1115.27h49.35v20.63h-75.78v-94.39h74v20.63h-47.6Zm-1.89-37.22h43.83v20h-43.83Z" transform="translate(-236.04 -523.28)"/><polygon class="cls-6" points="1068.75 612.62 1068.75 518.23 1090.73 518.23 1129.84 582.41 1118.24 582.41 1156.27 518.23 1178.25 518.23 1178.52 612.62 1153.98 612.62 1153.71 555.58 1157.89 555.58 1129.43 603.31 1117.57 603.31 1088.31 555.58 1093.43 555.58 1093.43 612.62 1068.75 612.62"/><rect class="cls-6" x="1210.66" y="518.23" width="26.7" height="94.39"/><polygon class="cls-6" points="1269.63 612.62 1269.63 518.23 1291.62 518.23 1343.66 581.06 1333.28 581.06 1333.28 518.23 1359.44 518.23 1359.44 612.62 1337.46 612.62 1285.41 549.78 1295.8 549.78 1295.8 612.62 1269.63 612.62"/><path class="cls-6" d="M1690.86,1122.28v-35.6h23.6v39.11Zm-16,15.51a59.84,59.84,0,0,1-20.76-3.51,49.78,49.78,0,0,1-16.59-10.24,48.28,48.28,0,0,1-10.79-15.52,49.48,49.48,0,0,1-3.91-19.82,48.49,48.49,0,0,1,3.91-19.68,46.77,46.77,0,0,1,10.93-15.65,47.94,47.94,0,0,1,16.58-10.11,59.8,59.8,0,0,1,21.17-3.64,60.77,60.77,0,0,1,23.88,4.45,44.7,44.7,0,0,1,17.39,12.81l-17,15.37a32.85,32.85,0,0,0-10.52-7.82,27.88,27.88,0,0,0-12.41-2.7,31,31,0,0,0-11,1.89,22.82,22.82,0,0,0-8.5,5.53,25.33,25.33,0,0,0-5.53,8.49,32.93,32.93,0,0,0,0,22,26.74,26.74,0,0,0,5.53,8.62,25.52,25.52,0,0,0,8.36,5.53,30.62,30.62,0,0,0,10.92,1.89,36.42,36.42,0,0,0,11.6-1.89,38.94,38.94,0,0,0,11.46-6.74l15,18.75a61.43,61.43,0,0,1-18.74,8.9A74.89,74.89,0,0,1,1674.81,1137.79Z" transform="translate(-236.04 -523.28)"/><polygon class="cls-6" points="1528.77 612.62 1528.77 539.4 1499.78 539.4 1499.78 518.23 1584.33 518.23 1584.33 539.4 1555.47 539.4 1555.47 612.62 1528.77 612.62"/><path class="cls-6" d="M1889.86,1115.67a25.88,25.88,0,0,0,10-1.89,22.7,22.7,0,0,0,8.1-5.39,25.18,25.18,0,0,0,5.39-8.63,29.16,29.16,0,0,0,2-11.06,28.55,28.55,0,0,0-2-11.06,23.86,23.86,0,0,0-5.39-8.49,22,22,0,0,0-8.1-5.53,25.88,25.88,0,0,0-10-1.89,27,27,0,0,0-10.12,1.89,23.68,23.68,0,0,0-8.09,5.53,26.46,26.46,0,0,0-5.39,8.49,30.35,30.35,0,0,0-1.89,11.06,31,31,0,0,0,1.89,11.06,28,28,0,0,0,5.39,8.63,24.46,24.46,0,0,0,8.09,5.39A27,27,0,0,0,1889.86,1115.67Zm0,22.12a58.54,58.54,0,0,1-20.91-3.64,51.32,51.32,0,0,1-16.72-10.25,48.66,48.66,0,0,1-10.92-15.65,50.83,50.83,0,0,1,0-39.1,47.34,47.34,0,0,1,10.92-15.51,50.15,50.15,0,0,1,16.72-10.38,58.32,58.32,0,0,1,20.91-3.64,57.57,57.57,0,0,1,20.9,3.64,48.56,48.56,0,0,1,16.58,10.38,47.22,47.22,0,0,1,10.93,15.51,46.66,46.66,0,0,1,4,19.55,47.81,47.81,0,0,1-15,35.2,49.66,49.66,0,0,1-16.58,10.25A57.78,57.78,0,0,1,1889.86,1137.79Z" transform="translate(-236.04 -523.28)"/><polygon class="cls-6" points="1733.56 612.62 1733.56 518.23 1755.54 518.23 1807.59 581.06 1797.21 581.06 1797.21 518.23 1823.37 518.23 1823.37 612.62 1801.39 612.62 1749.34 549.78 1759.72 549.78 1759.72 612.62 1733.56 612.62"/><path class="cls-6" d="M1036.23,1265.92h-23.6v-83.43h65.43v18.24h-41.83Zm-1.67-46.84h38.49v18.23h-38.49Z" transform="translate(-236.04 -523.28)"/><path class="cls-6" d="M1142.23,1248a22.79,22.79,0,0,0,8.82-1.67,20.14,20.14,0,0,0,7.15-4.77A22.13,22.13,0,0,0,1163,1234a25.83,25.83,0,0,0,1.79-9.77,25.27,25.27,0,0,0-1.79-9.78,21,21,0,0,0-4.77-7.51,19.51,19.51,0,0,0-7.15-4.88,22.79,22.79,0,0,0-8.82-1.67,23.69,23.69,0,0,0-8.94,1.67,20.84,20.84,0,0,0-7.15,4.88,23.48,23.48,0,0,0-4.77,7.51,26.88,26.88,0,0,0-1.66,9.78,27.48,27.48,0,0,0,1.66,9.77,24.82,24.82,0,0,0,4.77,7.62,21.56,21.56,0,0,0,7.15,4.77A23.69,23.69,0,0,0,1142.23,1248Zm0,19.55a51.41,51.41,0,0,1-18.47-3.22,44.88,44.88,0,0,1-14.78-9.06,42.93,42.93,0,0,1-9.65-13.82,44.91,44.91,0,0,1,0-34.57,41.6,41.6,0,0,1,9.65-13.7,44.19,44.19,0,0,1,14.78-9.18,51.63,51.63,0,0,1,18.47-3.22,51,51,0,0,1,18.47,3.22,43,43,0,0,1,14.66,9.18,42.83,42.83,0,0,1,0,62.09,43.63,43.63,0,0,1-14.66,9.06A50.8,50.8,0,0,1,1142.23,1267.59Z" transform="translate(-236.04 -523.28)"/><path class="cls-6" d="M1254.77,1248a22.79,22.79,0,0,0,8.82-1.67,20.09,20.09,0,0,0,7.16-4.77,22.11,22.11,0,0,0,4.76-7.62,25.83,25.83,0,0,0,1.79-9.77,25.27,25.27,0,0,0-1.79-9.78,21,21,0,0,0-4.76-7.51,19.47,19.47,0,0,0-7.16-4.88,22.79,22.79,0,0,0-8.82-1.67,23.68,23.68,0,0,0-8.93,1.67,20.75,20.75,0,0,0-7.15,4.88,23.31,23.31,0,0,0-4.77,7.51,26.88,26.88,0,0,0-1.67,9.78,27.48,27.48,0,0,0,1.67,9.77,24.63,24.63,0,0,0,4.77,7.62,21.46,21.46,0,0,0,7.15,4.77A23.68,23.68,0,0,0,1254.77,1248Zm0,19.55a51.45,51.45,0,0,1-18.47-3.22,44.83,44.83,0,0,1-14.77-9.06,44,44,0,0,1-9.66-48.39,41.48,41.48,0,0,1,9.66-13.7,44.14,44.14,0,0,1,14.77-9.18,51.67,51.67,0,0,1,18.47-3.22,51.06,51.06,0,0,1,18.48,3.22,43,43,0,0,1,14.66,9.18,42.85,42.85,0,0,1,0,62.09,43.63,43.63,0,0,1-14.66,9.06A50.85,50.85,0,0,1,1254.77,1267.59Z" transform="translate(-236.04 -523.28)"/><polygon class="cls-6" points="1105.78 742.63 1105.78 677.92 1080.16 677.92 1080.16 659.21 1154.88 659.21 1154.88 677.92 1129.38 677.92 1129.38 742.63 1105.78 742.63"/><polygon class="cls-6" points="1194.54 742.63 1194.54 707.36 1200.03 721.54 1162.72 659.21 1187.63 659.21 1214.56 704.38 1200.14 704.38 1227.19 659.21 1250.08 659.21 1212.89 721.54 1218.14 707.36 1218.14 742.63 1194.54 742.63"/><path class="cls-1" d="M1517.7,1239.25l4.13-11.82h27.68l4.12,11.82Zm-13.68,11,25-56.69h15.78l25.1,56.69h-16.68l-19.58-48.83H1540l-19.59,48.83Z" transform="translate(-236.04 -523.28)"/><path class="cls-1" d="M1620.6,1251.4a35.78,35.78,0,0,1-12.46-2.11,29.78,29.78,0,0,1-9.87-6.15,29.09,29.09,0,0,1-6.48-9.31,29.61,29.61,0,0,1-2.35-11.91,29,29,0,0,1,2.35-11.82,27.94,27.94,0,0,1,16.35-15.47,34.9,34.9,0,0,1,12.46-2.19,33.83,33.83,0,0,1,14,2.76,26.87,26.87,0,0,1,10.36,7.93l-10.19,9.24a20,20,0,0,0-6.07-4.94,15.37,15.37,0,0,0-7.29-1.7,17.37,17.37,0,0,0-6.39,1.13,13.86,13.86,0,0,0-5,3.32,16,16,0,0,0-3.24,5.1,20.07,20.07,0,0,0,0,13.28,16.74,16.74,0,0,0,3.24,5.18,14.2,14.2,0,0,0,5,3.24,17.37,17.37,0,0,0,6.39,1.14,15.49,15.49,0,0,0,7.29-1.7,20.09,20.09,0,0,0,6.07-4.94l10.19,9.23a28,28,0,0,1-10.36,7.94A34,34,0,0,1,1620.6,1251.4Z" transform="translate(-236.04 -523.28)"/><path class="cls-1" d="M1676.74,1239.25l4.12-11.82h27.69l4.13,11.82Zm-13.68,11,25-56.69h15.78l25.1,56.69h-16.68l-19.58-48.83H1699l-19.59,48.83Z" transform="translate(-236.04 -523.28)"/><path class="cls-1" d="M1768.23,1237.47h10.12a18.6,18.6,0,0,0,8.42-1.78,13.57,13.57,0,0,0,5.66-5.34,16.8,16.8,0,0,0,2-8.43,16.48,16.48,0,0,0-2-8.42,13,13,0,0,0-5.66-5.26,18,18,0,0,0-8.42-1.87h-10.12Zm-16,12.8v-56.69H1779a37.2,37.2,0,0,1,16.51,3.48,26.53,26.53,0,0,1,11.09,9.8,30.09,30.09,0,0,1,0,30.12,26.53,26.53,0,0,1-11.09,9.8,37.07,37.07,0,0,1-16.51,3.49Z" transform="translate(-236.04 -523.28)"/><path class="cls-1" d="M1853.65,1237.88h29.63v12.39h-45.49v-56.69h44.43V1206h-28.57Zm-1.13-22.36h26.31v12h-26.31Z" transform="translate(-236.04 -523.28)"/><polygon class="cls-1" points="1674.87 726.99 1674.87 670.3 1688.07 670.3 1711.54 708.84 1704.58 708.84 1727.4 670.3 1740.6 670.3 1740.76 726.99 1726.03 726.99 1725.86 692.73 1728.38 692.73 1711.3 721.39 1704.18 721.39 1686.61 692.73 1689.69 692.73 1689.69 726.99 1674.87 726.99"/><polygon class="cls-1" points="1785.15 726.99 1785.15 703.02 1788.87 712.65 1763.54 670.3 1780.45 670.3 1798.74 700.99 1788.95 700.99 1807.32 670.3 1822.86 670.3 1797.61 712.65 1801.17 703.02 1801.17 726.99 1785.15 726.99"/><rect class="cls-6" x="780.32" y="792.25" width="1026.07" height="6.67"/></svg>